<?xml version="1.0" standalone="no"?>
<!DOCTYPE svg PUBLIC "-//W3C//DTD SVG 20010904//EN"
 "http://www.w3.org/TR/2001/REC-SVG-20010904/DTD/svg10.dtd">
<svg version="1.0" xmlns="http://www.w3.org/2000/svg"
 width="512.000000pt" height="512.000000pt" viewBox="0 0 512.000000 512.000000"
 preserveAspectRatio="xMidYMid meet">

<g transform="translate(0.000000,512.000000) scale(0.100000,-0.100000)"
fill="#000000" stroke="none">
<path d="M1200 4999 c-94 -12 -229 -53 -318 -97 -221 -108 -381 -268 -487
-486 -104 -213 -115 -293 -115 -858 l0 -417 -41 -63 c-94 -145 -168 -332 -210
-528 -30 -139 -32 -415 -5 -560 32 -177 106 -369 200 -526 40 -66 42 -74 22
-74 -8 0 -22 -10 -30 -22 -13 -18 -16 -55 -16 -193 0 -234 -27 -215 298 -215
l252 0 0 -197 c0 -220 7 -264 46 -281 15 -7 79 -12 159 -12 l135 0 0 -139 c0
-153 9 -193 46 -210 17 -7 136 -11 380 -11 l355 0 24 25 25 24 0 401 0 400
740 0 740 0 0 -404 0 -405 26 -20 c26 -20 38 -21 384 -21 346 0 358 1 384 21
l26 20 0 160 0 159 144 0 c130 0 146 2 170 21 l26 20 0 225 0 224 255 0 256 0
24 25 c25 24 25 27 25 190 0 92 -4 175 -10 185 -18 34 -65 40 -311 40 l-239 0
0 183 c0 240 11 227 -193 227 l-147 0 0 160 c0 147 -2 162 -20 180 -19 19 -33
20 -388 20 l-369 0 -21 -23 c-22 -23 -22 -27 -22 -385 l0 -362 -305 0 -305 0
37 57 c77 120 154 307 188 453 37 163 48 401 25 560 -30 216 -120 455 -234
620 l-31 45 -6 500 c-5 472 -7 504 -27 576 -121 425 -448 721 -869 784 -109
16 -557 19 -673 4z m698 -155 c167 -34 312 -109 436 -225 131 -122 221 -274
264 -441 l20 -78 -152 0 -151 1 -29 66 c-84 187 -262 325 -475 368 -69 14
-123 16 -320 12 -237 -5 -266 -9 -371 -49 -150 -58 -283 -186 -352 -335 l-28
-63 -150 0 c-83 0 -150 3 -150 8 0 4 9 40 20 80 93 336 356 582 701 657 98 21
634 20 737 -1z m-84 -459 c179 -47 319 -182 370 -357 23 -80 21 -210 -5 -292
-11 -37 -26 -69 -33 -72 -8 -3 -41 6 -75 20 -158 64 -347 98 -546 97 -199 0
-349 -27 -543 -98 -84 -30 -82 -32 -110 57 -24 76 -23 227 2 299 57 165 199
303 357 345 79 21 502 22 583 1z m-1105 -509 c0 -83 12 -145 43 -229 11 -32
19 -59 17 -61 -2 -2 -42 -28 -89 -59 -47 -31 -120 -88 -163 -127 -43 -38 -80
-70 -82 -70 -3 0 -5 140 -5 310 l0 310 139 0 140 0 0 -74z m1921 -242 l0 -316
-62 58 c-81 74 -197 160 -285 209 -1 0 12 40 28 89 22 63 32 115 36 182 l6 94
138 0 139 0 0 -316z m-870 -15 c124 -21 246 -61 365 -119 397 -194 675 -554
762 -987 27 -134 24 -394 -6 -533 -50 -234 -180 -497 -278 -561 -26 -17 -52
-19 -355 -19 l-328 0 0 359 c0 347 -1 359 -21 385 l-20 26 -365 0 c-219 0
-373 -4 -384 -10 -30 -16 -40 -67 -40 -211 l0 -139 -141 0 c-77 0 -149 -5
-159 -10 -30 -16 -40 -74 -40 -242 l0 -158 -139 0 -138 0 -44 39 c-107 94
-225 361 -264 600 -23 135 -16 394 14 521 39 170 116 346 213 487 80 118 244
276 371 360 172 114 397 198 597 223 90 11 309 5 400 -11z m-330 -2474 l0
-885 -95 0 -95 0 0 885 0 885 95 0 95 0 0 -885z m340 0 l0 -885 -95 0 -95 0 0
885 0 885 95 0 95 0 0 -885z m1970 0 l0 -885 -100 0 -100 0 0 878 c0 483 3
882 7 885 3 4 48 7 100 7 l93 0 0 -885z m338 -3 l2 -882 -100 0 -100 0 0 878
c0 483 3 882 7 886 4 4 48 5 98 4 l90 -3 3 -883z m-2988 3 l0 -525 -95 0 -95
0 0 525 0 525 95 0 95 0 0 -525z m3328 -2 l2 -523 -100 0 -100 0 0 518 c0 285
3 522 7 526 4 4 48 5 98 4 l90 -3 3 -522z m-3668 37 l0 -70 -205 0 -205 0 0
70 0 70 205 0 205 0 0 -70z m2650 0 l0 -70 -740 0 -740 0 0 70 0 70 740 0 740
0 0 -70z m1570 0 l0 -70 -205 0 -205 0 0 70 0 70 205 0 205 0 0 -70z"/>
</g>
</svg>
